<svg width="24" height="23" viewBox="0 0 24 23" fill="none" xmlns="http://www.w3.org/2000/svg">
    <g clip-path="url(#clip0_2053_4788)">
        <path d="M0.5 3.59375C0.5 3.40313 0.575725 3.22031 0.710517 3.08552C0.845309 2.95073 1.02813 2.875 1.21875 2.875H3.375C3.53533 2.87504 3.69103 2.92869 3.81736 3.02741C3.94369 3.12613 4.03339 3.26425 4.07219 3.41981L4.65438 5.75H21.3438C21.4529 5.75003 21.5607 5.77493 21.6588 5.82281C21.7569 5.8707 21.8428 5.9403 21.91 6.02634C21.9772 6.11239 22.0239 6.21261 22.0466 6.3194C22.0693 6.4262 22.0674 6.53676 22.0409 6.64269L19.8847 15.2677C19.8459 15.4232 19.7562 15.5614 19.6299 15.6601C19.5035 15.7588 19.3478 15.8125 19.1875 15.8125H6.25C6.08967 15.8125 5.93397 15.7588 5.80764 15.6601C5.68131 15.5614 5.59161 15.4232 5.55281 15.2677L2.81437 4.3125H1.21875C1.02813 4.3125 0.845309 4.23677 0.710517 4.10198C0.575725 3.96719 0.5 3.78437 0.5 3.59375ZM5.01375 7.1875L6.81062 14.375H18.6269L20.4237 7.1875H5.01375ZM7.6875 18.6875C7.30625 18.6875 6.94062 18.839 6.67103 19.1085C6.40145 19.3781 6.25 19.7438 6.25 20.125C6.25 20.5062 6.40145 20.8719 6.67103 21.1415C6.94062 21.411 7.30625 21.5625 7.6875 21.5625C8.06875 21.5625 8.43438 21.411 8.70397 21.1415C8.97355 20.8719 9.125 20.5062 9.125 20.125C9.125 19.7438 8.97355 19.3781 8.70397 19.1085C8.43438 18.839 8.06875 18.6875 7.6875 18.6875ZM4.8125 20.125C4.8125 19.3625 5.1154 18.6312 5.65457 18.0921C6.19374 17.5529 6.925 17.25 7.6875 17.25C8.45 17.25 9.18126 17.5529 9.72043 18.0921C10.2596 18.6312 10.5625 19.3625 10.5625 20.125C10.5625 20.8875 10.2596 21.6188 9.72043 22.1579C9.18126 22.6971 8.45 23 7.6875 23C6.925 23 6.19374 22.6971 5.65457 22.1579C5.1154 21.6188 4.8125 20.8875 4.8125 20.125ZM17.75 18.6875C17.3688 18.6875 17.0031 18.839 16.7335 19.1085C16.464 19.3781 16.3125 19.7438 16.3125 20.125C16.3125 20.5062 16.464 20.8719 16.7335 21.1415C17.0031 21.411 17.3688 21.5625 17.75 21.5625C18.1312 21.5625 18.4969 21.411 18.7665 21.1415C19.036 20.8719 19.1875 20.5062 19.1875 20.125C19.1875 19.7438 19.036 19.3781 18.7665 19.1085C18.4969 18.839 18.1312 18.6875 17.75 18.6875ZM14.875 20.125C14.875 19.3625 15.1779 18.6312 15.7171 18.0921C16.2562 17.5529 16.9875 17.25 17.75 17.25C18.5125 17.25 19.2438 17.5529 19.7829 18.0921C20.3221 18.6312 20.625 19.3625 20.625 20.125C20.625 20.8875 20.3221 21.6188 19.7829 22.1579C19.2438 22.6971 18.5125 23 17.75 23C16.9875 23 16.2562 22.6971 15.7171 22.1579C15.1779 21.6188 14.875 20.8875 14.875 20.125Z" fill="#0052B4"/>
    </g>
    <defs>
        <clipPath id="clip0_2053_4788">
            <rect width="23" height="23" fill="white" transform="translate(0.5)"/>
        </clipPath>
    </defs>
</svg>