<svg width="34" height="33" viewBox="0 0 34 33" fill="none" xmlns="http://www.w3.org/2000/svg">
    <path d="M30.7887 29.8885C31.0903 29.5033 31.2744 29.0246 31.275 28.4999V23.3924L25.2914 17.4089L30.7887 29.8885ZM30.7887 29.8885L19.9083 19.0091L21.5086 17.4089L30.7887 29.8885ZM29.0001 0.375H29L5 0.375L4.99988 0.375C2.72264 0.377112 0.877112 2.22264 0.875 4.49988V4.5L0.875 28.5L0.875 28.5001C0.877112 30.7774 2.72264 32.6229 4.99988 32.625H5H29H29.0001C31.2774 32.6229 33.1229 30.7774 33.125 28.5001V28.5V4.5V4.49988C33.1229 2.22264 31.2774 0.377112 29.0001 0.375ZM31.275 20.7765L26.5993 16.1007L26.5992 16.1006C24.8313 14.3364 21.9687 14.3364 20.2008 16.1006L20.2007 16.1007L18.6003 17.7011L13.7993 12.9007L13.7993 12.9006L13.7973 12.8987C12.0081 11.19 9.19187 11.19 7.40272 12.8987L7.4027 12.8986L7.40067 12.9007L2.725 17.5763L2.725 4.50014C2.7264 3.24417 3.74417 2.2264 5.00014 2.225H28.9999C30.2559 2.2264 31.2736 3.24417 31.275 4.50014V20.7765ZM5.00014 30.775C3.74417 30.7736 2.7264 29.7559 2.725 28.4999L2.725 20.1924L8.70855 14.2089C9.75421 13.1668 11.4458 13.1668 12.4914 14.2089L29.0574 30.7733C29.0383 30.7744 29.0192 30.775 28.9998 30.775H5.00014ZM21.5087 17.4087C22.5543 16.367 24.2457 16.367 25.2913 17.4087H21.5087Z" fill="#3469DB" stroke="#3469DB" stroke-width="0.25"/>
</svg>