<svg width="16" height="16" viewBox="0 0 16 16" fill="none" xmlns="http://www.w3.org/2000/svg">
<path d="M10.2361 2.61373L11.4861 3.2697C12.8309 3.97541 13.5033 4.32827 13.8766 4.96234C14.25 5.59641 14.25 6.38542 14.25 7.96344V8.03656C14.25 9.61456 14.25 10.4036 13.8766 11.0377C13.5033 11.6717 12.8309 12.0246 11.4861 12.7303L10.2361 13.3862C9.13881 13.9621 8.59019 14.25 8 14.25C7.40981 14.25 6.86119 13.9621 5.76393 13.3862L4.51393 12.7303C3.16914 12.0246 2.49674 11.6717 2.12338 11.0377C1.75 10.4036 1.75 9.61456 1.75 8.03656V7.96344C1.75 6.38542 1.75 5.59641 2.12338 4.96234C2.49674 4.32827 3.16914 3.97541 4.51393 3.2697L5.76393 2.61373C6.86119 2.03791 7.40981 1.75 8 1.75C8.59019 1.75 9.13881 2.03791 10.2361 2.61373Z" stroke="black" stroke-linecap="round"/>
<path d="M13.625 5.1875L11.125 6.4375M11.125 6.4375C11.125 6.4375 10.9346 6.53273 10.8125 6.59375L8 8M11.125 6.4375V8.625M11.125 6.4375L5.1875 3.3125M8 8L2.375 5.1875M8 8V13.9375" stroke="black" stroke-linecap="round"/>
</svg>
