<svg width="16" height="16" viewBox="0 0 16 16" fill="none" xmlns="http://www.w3.org/2000/svg">
    <path d="M8.68265 15.0197C10.1593 13.1717 13.5272 8.69267 13.5272 6.17683C13.5272 3.12557 11.0517 0.650024 8.00044 0.650024C4.94918 0.650024 2.47363 3.12557 2.47363 6.17683C2.47363 8.69267 5.84153 13.1717 7.31822 15.0197C7.67229 15.4601 8.32859 15.4601 8.68265 15.0197ZM8.00044 4.33456C9.41862 4.33456 10.305 5.86978 9.59589 7.09796C9.26679 7.66799 8.65864 8.01913 8.00044 8.01909C6.58226 8.01916 5.69591 6.48397 6.40495 5.25577C6.73402 4.68572 7.34223 4.33456 8.00044 4.33456Z" fill="#848484"/>
</svg>