<svg width="15" height="15" viewBox="0 0 15 15" fill="none" xmlns="http://www.w3.org/2000/svg">
<path d="M3.57394 0.524058L3.57415 0.524001C3.88722 0.438472 4.21269 0.588223 4.35239 0.875493L4.36952 0.916601L5.54139 3.7291L5.54147 3.7293C5.65551 4.00266 5.57699 4.3178 5.34662 4.50613L3.9023 5.68678L3.59958 5.93425L3.76676 6.2877C4.79181 8.45475 6.54591 10.2089 8.71296 11.2339L9.06597 11.4009L9.31349 11.0988L10.4971 9.65449L10.4971 9.6545L10.4988 9.65234C10.6831 9.42486 10.9997 9.34464 11.2743 9.45919L11.2745 9.45927L14.087 10.6311L14.088 10.6316C14.3994 10.7605 14.5658 11.1002 14.4767 11.4265L14.4766 11.4267L13.7739 14.0034C13.7738 14.0036 13.7738 14.0038 13.7737 14.004C13.6923 14.2983 13.4255 14.5007 13.125 14.5007C6.1531 14.5007 0.5 8.84757 0.5 1.87566C0.5 1.57515 0.702377 1.30842 0.996633 1.22696C0.996829 1.22691 0.997026 1.22685 0.997222 1.2268L3.57394 0.524058Z" stroke="black"/>
</svg>
