<svg width="33" height="33" viewBox="0 0 33 33" fill="none" xmlns="http://www.w3.org/2000/svg">
    <path d="M31.1998 19.3914C31.1998 23.7423 27.6757 27.2664 23.3248 27.2664H22.7998C21.6382 27.2664 20.6998 26.3279 20.6998 25.1664C20.6998 24.0048 21.6382 23.0664 22.7998 23.0664H23.3248C25.3526 23.0664 26.9998 21.4192 26.9998 19.3914V18.8664H22.7998C20.4832 18.8664 18.5998 16.9829 18.5998 14.6664V10.4664C18.5998 8.14979 20.4832 6.26636 22.7998 6.26636H26.9998C29.3164 6.26636 31.1998 8.14979 31.1998 10.4664V19.3914ZM14.3998 19.3914C14.3998 23.7423 10.8757 27.2664 6.5248 27.2664H5.9998C4.83824 27.2664 3.8998 26.3279 3.8998 25.1664C3.8998 24.0048 4.83824 23.0664 5.9998 23.0664H6.5248C8.55262 23.0664 10.1998 21.4192 10.1998 19.3914V18.8664H5.9998C3.68324 18.8664 1.7998 16.9829 1.7998 14.6664V10.4664C1.7998 8.14979 3.68324 6.26636 5.9998 6.26636H10.1998C12.5164 6.26636 14.3998 8.14979 14.3998 10.4664V19.3914Z" fill="black"/>
</svg>