<svg width="24" height="24" viewBox="0 0 24 24" fill="none" xmlns="http://www.w3.org/2000/svg">
    <path fill-rule="evenodd" clip-rule="evenodd" d="M6 4.5H9.5V11.125C9.5 11.3239 9.57902 11.5147 9.71967 11.6553C9.86032 11.796 10.0511 11.875 10.25 11.875C10.4489 11.875 10.6397 11.796 10.7803 11.6553C10.921 11.5147 11 11.3239 11 11.125V4.5H14.75C15.35 4.5 15.75 4.9 15.75 5.5V14.337C15.1515 14.6209 14.6458 15.0688 14.2918 15.6288C13.9377 16.1887 13.7499 16.8376 13.75 17.5H12.75C12.7501 16.8604 12.575 16.233 12.2437 15.686C11.9123 15.1389 11.4374 14.6932 10.8705 14.397C10.3036 14.1009 9.66642 13.9658 9.02813 14.0063C8.38984 14.0469 7.77487 14.2615 7.25 14.627C6.72513 14.2615 6.11016 14.0469 5.47187 14.0063C4.83358 13.9658 4.19639 14.1009 3.6295 14.397C3.06261 14.6932 2.58769 15.1389 2.25634 15.686C1.92499 16.233 1.74987 16.8604 1.75 17.5C1.15 17.5 0.75 17 0.75 16.5V5.5C0.75 4.9 1.15 4.5 1.75 4.5H4.5V11.125C4.5 11.3239 4.57902 11.5147 4.71967 11.6553C4.86032 11.796 5.05109 11.875 5.25 11.875C5.44891 11.875 5.63968 11.796 5.78033 11.6553C5.92098 11.5147 6 11.3239 6 11.125V4.5ZM7.25 17.5C7.25 18.0304 7.03929 18.5391 6.66421 18.9142C6.28914 19.2893 5.78043 19.5 5.25 19.5C4.71957 19.5 4.21086 19.2893 3.83579 18.9142C3.46071 18.5391 3.25 18.0304 3.25 17.5C3.25 16.9696 3.46071 16.4609 3.83579 16.0858C4.21086 15.7107 4.71957 15.5 5.25 15.5C5.78043 15.5 6.28914 15.7107 6.66421 16.0858C7.03929 16.4609 7.25 16.9696 7.25 17.5ZM7.25 17.5C7.25 16.9696 7.46071 16.4609 7.83579 16.0858C8.21086 15.7107 8.71957 15.5 9.25 15.5C9.78043 15.5 10.2891 15.7107 10.6642 16.0858C11.0393 16.4609 11.25 16.9696 11.25 17.5C11.25 18.0304 11.0393 18.5391 10.6642 18.9142C10.2891 19.2893 9.78043 19.5 9.25 19.5C8.71957 19.5 8.21086 19.2893 7.83579 18.9142C7.46071 18.5391 7.25 18.0304 7.25 17.5ZM17.25 19.5C17.7804 19.5 18.2891 19.2893 18.6642 18.9142C19.0393 18.5391 19.25 18.0304 19.25 17.5C19.25 16.9696 19.0393 16.4609 18.6642 16.0858C18.2891 15.7107 17.7804 15.5 17.25 15.5C16.7196 15.5 16.2109 15.7107 15.8358 16.0858C15.4607 16.4609 15.25 16.9696 15.25 17.5C15.25 18.0304 15.4607 18.5391 15.8358 18.9142C16.2109 19.2893 16.7196 19.5 17.25 19.5ZM17.25 7.5V14C18.1783 14 19.0685 14.3687 19.7249 15.0251C20.3813 15.6815 20.75 16.5717 20.75 17.5H22.25C22.85 17.5 23.25 17 23.25 16.5V12.2C23.25 11.8 22.95 11.4 22.55 11.3L20.25 10.5L18.55 7.9C18.35 7.7 18.05 7.5 17.75 7.5H17.25Z" fill="black"/>
</svg>